<mxfile host="app.diagrams.net" modified="2021-06-01T05:33:39.632Z" agent="5.0 (Windows NT 6.1; Win64; x64) AppleWebKit/537.36 (KHTML, like Gecko) Chrome/87.0.4280.88 Safari/537.36" etag="4rzpmFIQ3IPMfN9RYomQ" version="14.7.2" type="github">
  <diagram id="EwbX9mpkvoUNNOCfkUZI" name="Page-1">
    <mxGraphModel dx="868" dy="450" grid="1" gridSize="10" guides="1" tooltips="1" connect="1" arrows="1" fold="1" page="1" pageScale="1" pageWidth="827" pageHeight="1169" math="0" shadow="0">
      <root>
        <mxCell id="0" />
        <mxCell id="1" parent="0" />
        <mxCell id="eeIbHWTUn3KxEcWrhLfm-12" style="edgeStyle=orthogonalEdgeStyle;rounded=0;orthogonalLoop=1;jettySize=auto;html=1;exitX=0.5;exitY=1;exitDx=0;exitDy=0;" edge="1" parent="1" source="eeIbHWTUn3KxEcWrhLfm-1" target="eeIbHWTUn3KxEcWrhLfm-2">
          <mxGeometry relative="1" as="geometry" />
        </mxCell>
        <mxCell id="eeIbHWTUn3KxEcWrhLfm-1" value="&lt;font style=&quot;font-size: 18px&quot;&gt;监测服务目标&lt;/font&gt;" style="rounded=1;whiteSpace=wrap;html=1;" vertex="1" parent="1">
          <mxGeometry x="310" y="70" width="120" height="60" as="geometry" />
        </mxCell>
        <mxCell id="eeIbHWTUn3KxEcWrhLfm-13" style="edgeStyle=orthogonalEdgeStyle;rounded=0;orthogonalLoop=1;jettySize=auto;html=1;exitX=0.5;exitY=1;exitDx=0;exitDy=0;entryX=0.5;entryY=0;entryDx=0;entryDy=0;" edge="1" parent="1" source="eeIbHWTUn3KxEcWrhLfm-2" target="eeIbHWTUn3KxEcWrhLfm-3">
          <mxGeometry relative="1" as="geometry" />
        </mxCell>
        <mxCell id="eeIbHWTUn3KxEcWrhLfm-2" value="&lt;font style=&quot;font-size: 18px&quot;&gt;管网关键节点&lt;/font&gt;" style="rounded=1;whiteSpace=wrap;html=1;" vertex="1" parent="1">
          <mxGeometry x="310" y="170" width="120" height="60" as="geometry" />
        </mxCell>
        <mxCell id="eeIbHWTUn3KxEcWrhLfm-17" style="edgeStyle=orthogonalEdgeStyle;rounded=0;orthogonalLoop=1;jettySize=auto;html=1;exitX=0.5;exitY=1;exitDx=0;exitDy=0;" edge="1" parent="1" source="eeIbHWTUn3KxEcWrhLfm-3" target="eeIbHWTUn3KxEcWrhLfm-16">
          <mxGeometry relative="1" as="geometry" />
        </mxCell>
        <mxCell id="eeIbHWTUn3KxEcWrhLfm-3" value="&lt;font style=&quot;font-size: 18px&quot;&gt;监测点位确定&lt;/font&gt;" style="rounded=1;whiteSpace=wrap;html=1;" vertex="1" parent="1">
          <mxGeometry x="310" y="270" width="120" height="60" as="geometry" />
        </mxCell>
        <mxCell id="eeIbHWTUn3KxEcWrhLfm-37" style="edgeStyle=orthogonalEdgeStyle;rounded=0;orthogonalLoop=1;jettySize=auto;html=1;exitX=0;exitY=0.5;exitDx=0;exitDy=0;" edge="1" parent="1" source="eeIbHWTUn3KxEcWrhLfm-4" target="eeIbHWTUn3KxEcWrhLfm-3">
          <mxGeometry relative="1" as="geometry" />
        </mxCell>
        <mxCell id="eeIbHWTUn3KxEcWrhLfm-4" value="&lt;font style=&quot;font-size: 18px&quot;&gt;基础资料收集&lt;/font&gt;" style="rounded=1;whiteSpace=wrap;html=1;" vertex="1" parent="1">
          <mxGeometry x="530" y="270" width="140" height="60" as="geometry" />
        </mxCell>
        <mxCell id="eeIbHWTUn3KxEcWrhLfm-15" style="edgeStyle=orthogonalEdgeStyle;rounded=0;orthogonalLoop=1;jettySize=auto;html=1;exitX=1;exitY=0.5;exitDx=0;exitDy=0;entryX=0.5;entryY=0;entryDx=0;entryDy=0;" edge="1" parent="1" source="eeIbHWTUn3KxEcWrhLfm-5" target="eeIbHWTUn3KxEcWrhLfm-4">
          <mxGeometry relative="1" as="geometry" />
        </mxCell>
        <mxCell id="eeIbHWTUn3KxEcWrhLfm-5" value="&lt;font style=&quot;font-size: 18px&quot;&gt;城市排水管网&lt;/font&gt;" style="rounded=1;whiteSpace=wrap;html=1;rotation=90;" vertex="1" parent="1">
          <mxGeometry x="460" y="140" width="120" height="60" as="geometry" />
        </mxCell>
        <mxCell id="eeIbHWTUn3KxEcWrhLfm-8" style="edgeStyle=orthogonalEdgeStyle;rounded=0;orthogonalLoop=1;jettySize=auto;html=1;exitX=1;exitY=0.5;exitDx=0;exitDy=0;entryX=0.5;entryY=0;entryDx=0;entryDy=0;" edge="1" parent="1" source="eeIbHWTUn3KxEcWrhLfm-6" target="eeIbHWTUn3KxEcWrhLfm-4">
          <mxGeometry relative="1" as="geometry" />
        </mxCell>
        <mxCell id="eeIbHWTUn3KxEcWrhLfm-6" value="&lt;font style=&quot;font-size: 18px&quot;&gt;区域内河水系&lt;/font&gt;" style="rounded=1;whiteSpace=wrap;html=1;rotation=90;" vertex="1" parent="1">
          <mxGeometry x="540" y="140" width="120" height="60" as="geometry" />
        </mxCell>
        <mxCell id="eeIbHWTUn3KxEcWrhLfm-14" style="edgeStyle=orthogonalEdgeStyle;rounded=0;orthogonalLoop=1;jettySize=auto;html=1;exitX=1;exitY=0.5;exitDx=0;exitDy=0;" edge="1" parent="1" source="eeIbHWTUn3KxEcWrhLfm-7">
          <mxGeometry relative="1" as="geometry">
            <mxPoint x="600" y="270" as="targetPoint" />
          </mxGeometry>
        </mxCell>
        <mxCell id="eeIbHWTUn3KxEcWrhLfm-7" value="&lt;font style=&quot;font-size: 18px&quot;&gt;土地利用类型&lt;/font&gt;" style="rounded=1;whiteSpace=wrap;html=1;rotation=90;" vertex="1" parent="1">
          <mxGeometry x="620" y="140" width="120" height="60" as="geometry" />
        </mxCell>
        <mxCell id="eeIbHWTUn3KxEcWrhLfm-21" style="edgeStyle=orthogonalEdgeStyle;rounded=0;orthogonalLoop=1;jettySize=auto;html=1;exitX=0.5;exitY=1;exitDx=0;exitDy=0;" edge="1" parent="1" source="eeIbHWTUn3KxEcWrhLfm-16" target="eeIbHWTUn3KxEcWrhLfm-18">
          <mxGeometry relative="1" as="geometry" />
        </mxCell>
        <mxCell id="eeIbHWTUn3KxEcWrhLfm-16" value="&lt;font style=&quot;font-size: 18px&quot;&gt;现场调研勘查&lt;/font&gt;" style="rounded=1;whiteSpace=wrap;html=1;" vertex="1" parent="1">
          <mxGeometry x="310" y="370" width="120" height="60" as="geometry" />
        </mxCell>
        <mxCell id="eeIbHWTUn3KxEcWrhLfm-31" style="edgeStyle=orthogonalEdgeStyle;rounded=0;orthogonalLoop=1;jettySize=auto;html=1;exitX=0.5;exitY=1;exitDx=0;exitDy=0;entryX=0.5;entryY=0;entryDx=0;entryDy=0;" edge="1" parent="1" source="eeIbHWTUn3KxEcWrhLfm-18" target="eeIbHWTUn3KxEcWrhLfm-22">
          <mxGeometry relative="1" as="geometry" />
        </mxCell>
        <mxCell id="eeIbHWTUn3KxEcWrhLfm-39" style="edgeStyle=orthogonalEdgeStyle;rounded=0;orthogonalLoop=1;jettySize=auto;html=1;exitX=0;exitY=0.5;exitDx=0;exitDy=0;entryX=0;entryY=0.5;entryDx=0;entryDy=0;" edge="1" parent="1" source="eeIbHWTUn3KxEcWrhLfm-18" target="eeIbHWTUn3KxEcWrhLfm-3">
          <mxGeometry relative="1" as="geometry" />
        </mxCell>
        <mxCell id="eeIbHWTUn3KxEcWrhLfm-18" value="&lt;font style=&quot;font-size: 18px&quot;&gt;是否满足设备安装&lt;br&gt;及数据采集需求&lt;/font&gt;" style="rhombus;whiteSpace=wrap;html=1;" vertex="1" parent="1">
          <mxGeometry x="255" y="470" width="230" height="100" as="geometry" />
        </mxCell>
        <mxCell id="eeIbHWTUn3KxEcWrhLfm-32" style="edgeStyle=orthogonalEdgeStyle;rounded=0;orthogonalLoop=1;jettySize=auto;html=1;exitX=0.5;exitY=1;exitDx=0;exitDy=0;entryX=0.5;entryY=0;entryDx=0;entryDy=0;" edge="1" parent="1" source="eeIbHWTUn3KxEcWrhLfm-22" target="eeIbHWTUn3KxEcWrhLfm-23">
          <mxGeometry relative="1" as="geometry" />
        </mxCell>
        <mxCell id="eeIbHWTUn3KxEcWrhLfm-22" value="&lt;font style=&quot;font-size: 18px&quot;&gt;在线监测&lt;br&gt;设备安装&lt;/font&gt;" style="rounded=1;whiteSpace=wrap;html=1;" vertex="1" parent="1">
          <mxGeometry x="310" y="620" width="120" height="60" as="geometry" />
        </mxCell>
        <mxCell id="eeIbHWTUn3KxEcWrhLfm-33" style="edgeStyle=orthogonalEdgeStyle;rounded=0;orthogonalLoop=1;jettySize=auto;html=1;exitX=0.5;exitY=1;exitDx=0;exitDy=0;entryX=0.5;entryY=0;entryDx=0;entryDy=0;" edge="1" parent="1" source="eeIbHWTUn3KxEcWrhLfm-23" target="eeIbHWTUn3KxEcWrhLfm-24">
          <mxGeometry relative="1" as="geometry" />
        </mxCell>
        <mxCell id="eeIbHWTUn3KxEcWrhLfm-23" value="&lt;font style=&quot;font-size: 18px&quot;&gt;在线监测设备&lt;br&gt;&lt;/font&gt;" style="rounded=1;whiteSpace=wrap;html=1;" vertex="1" parent="1">
          <mxGeometry x="310" y="730" width="120" height="60" as="geometry" />
        </mxCell>
        <mxCell id="eeIbHWTUn3KxEcWrhLfm-34" style="edgeStyle=orthogonalEdgeStyle;rounded=0;orthogonalLoop=1;jettySize=auto;html=1;exitX=0;exitY=0.5;exitDx=0;exitDy=0;entryX=1;entryY=0.5;entryDx=0;entryDy=0;" edge="1" parent="1" source="eeIbHWTUn3KxEcWrhLfm-24" target="eeIbHWTUn3KxEcWrhLfm-29">
          <mxGeometry relative="1" as="geometry" />
        </mxCell>
        <mxCell id="eeIbHWTUn3KxEcWrhLfm-24" value="&lt;font style=&quot;font-size: 18px&quot;&gt;数据分析&lt;/font&gt;" style="shape=process;whiteSpace=wrap;html=1;backgroundOutline=1;" vertex="1" parent="1">
          <mxGeometry x="310" y="840" width="120" height="60" as="geometry" />
        </mxCell>
        <mxCell id="eeIbHWTUn3KxEcWrhLfm-40" style="edgeStyle=orthogonalEdgeStyle;rounded=0;orthogonalLoop=1;jettySize=auto;html=1;exitX=0;exitY=0.5;exitDx=0;exitDy=0;entryX=1;entryY=0.5;entryDx=0;entryDy=0;" edge="1" parent="1" source="eeIbHWTUn3KxEcWrhLfm-25" target="eeIbHWTUn3KxEcWrhLfm-24">
          <mxGeometry relative="1" as="geometry" />
        </mxCell>
        <mxCell id="eeIbHWTUn3KxEcWrhLfm-25" value="&lt;font style=&quot;font-size: 18px&quot;&gt;降雨入流分析&lt;br&gt;&lt;/font&gt;" style="rounded=1;whiteSpace=wrap;html=1;" vertex="1" parent="1">
          <mxGeometry x="560" y="760" width="120" height="60" as="geometry" />
        </mxCell>
        <mxCell id="eeIbHWTUn3KxEcWrhLfm-41" style="edgeStyle=orthogonalEdgeStyle;rounded=0;orthogonalLoop=1;jettySize=auto;html=1;exitX=0;exitY=0.5;exitDx=0;exitDy=0;entryX=1;entryY=0.5;entryDx=0;entryDy=0;" edge="1" parent="1" source="eeIbHWTUn3KxEcWrhLfm-26" target="eeIbHWTUn3KxEcWrhLfm-24">
          <mxGeometry relative="1" as="geometry" />
        </mxCell>
        <mxCell id="eeIbHWTUn3KxEcWrhLfm-26" value="&lt;font style=&quot;font-size: 18px&quot;&gt;河水入渗分析&lt;br&gt;&lt;/font&gt;" style="rounded=1;whiteSpace=wrap;html=1;" vertex="1" parent="1">
          <mxGeometry x="560" y="840" width="120" height="60" as="geometry" />
        </mxCell>
        <mxCell id="eeIbHWTUn3KxEcWrhLfm-42" style="edgeStyle=orthogonalEdgeStyle;rounded=0;orthogonalLoop=1;jettySize=auto;html=1;exitX=0;exitY=0.5;exitDx=0;exitDy=0;entryX=1;entryY=0.5;entryDx=0;entryDy=0;" edge="1" parent="1" source="eeIbHWTUn3KxEcWrhLfm-27" target="eeIbHWTUn3KxEcWrhLfm-24">
          <mxGeometry relative="1" as="geometry" />
        </mxCell>
        <mxCell id="eeIbHWTUn3KxEcWrhLfm-27" value="&lt;font style=&quot;font-size: 18px&quot;&gt;地下水&lt;br&gt;入渗分析&lt;br&gt;&lt;/font&gt;" style="rounded=1;whiteSpace=wrap;html=1;" vertex="1" parent="1">
          <mxGeometry x="560" y="930" width="120" height="60" as="geometry" />
        </mxCell>
        <mxCell id="eeIbHWTUn3KxEcWrhLfm-28" value="&lt;font style=&quot;font-size: 18px&quot;&gt;定期运营维护&lt;br&gt;&lt;/font&gt;" style="rounded=1;whiteSpace=wrap;html=1;" vertex="1" parent="1">
          <mxGeometry x="310" y="950" width="120" height="60" as="geometry" />
        </mxCell>
        <mxCell id="eeIbHWTUn3KxEcWrhLfm-35" style="edgeStyle=orthogonalEdgeStyle;rounded=0;orthogonalLoop=1;jettySize=auto;html=1;exitX=0.5;exitY=1;exitDx=0;exitDy=0;entryX=0;entryY=0.5;entryDx=0;entryDy=0;" edge="1" parent="1" source="eeIbHWTUn3KxEcWrhLfm-29" target="eeIbHWTUn3KxEcWrhLfm-28">
          <mxGeometry relative="1" as="geometry" />
        </mxCell>
        <mxCell id="eeIbHWTUn3KxEcWrhLfm-36" style="edgeStyle=orthogonalEdgeStyle;rounded=0;orthogonalLoop=1;jettySize=auto;html=1;exitX=0.5;exitY=0;exitDx=0;exitDy=0;" edge="1" parent="1" source="eeIbHWTUn3KxEcWrhLfm-29" target="eeIbHWTUn3KxEcWrhLfm-30">
          <mxGeometry relative="1" as="geometry" />
        </mxCell>
        <mxCell id="eeIbHWTUn3KxEcWrhLfm-29" value="&lt;font style=&quot;font-size: 18px&quot;&gt;是否达到分析目标&lt;/font&gt;" style="rhombus;whiteSpace=wrap;html=1;" vertex="1" parent="1">
          <mxGeometry x="40" y="830" width="190" height="80" as="geometry" />
        </mxCell>
        <mxCell id="eeIbHWTUn3KxEcWrhLfm-38" style="edgeStyle=orthogonalEdgeStyle;rounded=0;orthogonalLoop=1;jettySize=auto;html=1;exitX=0.5;exitY=0;exitDx=0;exitDy=0;entryX=0;entryY=0.5;entryDx=0;entryDy=0;" edge="1" parent="1" source="eeIbHWTUn3KxEcWrhLfm-30" target="eeIbHWTUn3KxEcWrhLfm-3">
          <mxGeometry relative="1" as="geometry" />
        </mxCell>
        <mxCell id="eeIbHWTUn3KxEcWrhLfm-30" value="&lt;font style=&quot;font-size: 18px&quot;&gt;监测方案迭代&lt;br&gt;&lt;/font&gt;" style="rounded=1;whiteSpace=wrap;html=1;" vertex="1" parent="1">
          <mxGeometry x="75" y="620" width="120" height="60" as="geometry" />
        </mxCell>
      </root>
    </mxGraphModel>
  </diagram>
</mxfile>
